<svg clip-rule="evenodd" fill-rule="evenodd" stroke-linejoin="round" stroke-miterlimit="1.414" viewBox="0 0 2846 545" xmlns="http://www.w3.org/2000/svg"><g fill="#3eb549" fill-rule="nonzero"><path d="m0-117.766v117.772c0 1.151-.4 2.129-1.201 2.93-.801.808-1.773 1.208-2.917 1.208h-25.906c-1.144 0-2.117-.4-2.918-1.208-.801-.801-1.201-1.779-1.201-2.93v-55.523c0-1.15-.515-1.786-1.557-1.9-1.036-.116-1.901.292-2.587 1.207l-29.04 46.727c-.578.922-1.5 1.38-2.764 1.38-1.271 0-2.25-.458-2.943-1.38l-29.033-46.727c-.579-.915-1.386-1.323-2.422-1.207-1.036.114-1.557.75-1.557 1.9v55.523c0 1.151-.4 2.129-1.201 2.93-.801.808-1.774 1.208-2.918 1.208h-25.905c-1.144 0-2.117-.4-2.918-1.208-.801-.801-1.201-1.779-1.201-2.93v-117.772c0-1.15.4-2.129 1.201-2.936.801-.801 1.774-1.208 2.918-1.208h24.024c1.138 0 2.346.35 3.598 1.036 1.258.693 2.179 1.494 2.745 2.416l33.19 48.628c.693.921 1.5 1.378 2.422 1.378s1.671-.457 2.243-1.378l33.19-48.628c.687-.922 1.659-1.723 2.917-2.416 1.259-.686 2.46-1.036 3.604-1.036h24.019c1.144 0 2.116.407 2.917 1.208.801.807 1.201 1.786 1.201 2.936" transform="matrix(4.16667 0 0 4.16667 1182.65 518.002)"/><path d="m0 .001c0 4.372.801 8.51 2.408 12.412 1.614 3.915 3.826 7.36 6.643 10.348 2.815 2.993 6.12 5.377 9.915 7.156 3.794 1.786 7.817 2.676 12.069 2.676s8.276-.89 12.069-2.676c3.795-1.779 7.125-4.163 10.004-7.156 2.873-2.988 5.111-6.433 6.725-10.348 1.608-3.902 2.415-8.04 2.415-12.412 0-4.253-.807-8.364-2.415-12.331-1.614-3.966-3.852-7.41-6.725-10.347-2.879-2.929-6.209-5.282-10.004-7.067-3.793-1.78-7.817-2.67-12.069-2.67s-8.275.89-12.069 2.67c-3.795 1.785-7.1 4.138-9.915 7.067-2.817 2.937-5.029 6.381-6.643 10.347-1.607 3.967-2.408 8.078-2.408 12.331m-34.144 0c0-8.969 1.723-17.415 5.174-25.348 3.445-7.931 8.104-14.859 13.964-20.776 5.866-5.924 12.762-10.608 20.694-14.053 7.932-3.451 16.379-5.174 25.347-5.174s17.415 1.723 25.347 5.174c7.931 3.445 14.859 8.129 20.777 14.053 5.923 5.917 10.608 12.845 14.052 20.776 3.451 7.933 5.174 16.379 5.174 25.348 0 8.968-1.723 17.414-5.174 25.347-3.444 7.931-8.129 14.859-14.052 20.776-5.918 5.924-12.846 10.608-20.777 14.06-7.932 3.444-16.379 5.167-25.347 5.167s-17.415-1.723-25.347-5.167c-7.932-3.452-14.828-8.136-20.694-14.06-5.86-5.917-10.519-12.845-13.964-20.776-3.451-7.933-5.174-16.379-5.174-25.347" transform="matrix(4.16667 0 0 4.16667 1388.16 272.292)"/><path d="m0-9.661h18.184c1.373 0 2.803-.254 4.291-.775 1.487-.515 2.859-1.316 4.118-2.415 1.259-1.087 2.288-2.441 3.089-4.049.8-1.608 1.201-3.508 1.201-5.689 0-1.15-.197-2.504-.598-4.054-.4-1.551-1.087-3.044-2.058-4.481-.973-1.436-2.289-2.644-3.948-3.623-1.659-.978-3.686-1.468-6.095-1.468h-18.184c-1.144 0-2.116.407-2.917 1.207-.801.808-1.201 1.786-1.201 2.93v18.279c0 1.151.4 2.13 1.201 2.931.801.807 1.773 1.207 2.917 1.207m-8.281 67.943h-25.818c-1.156 0-2.141-.4-2.949-1.208-.806-.8-1.214-1.779-1.214-2.929v-117.951c0-1.144.401-2.123 1.208-2.93.801-.8 1.78-1.207 2.93-1.207h53.63c6.661 0 12.813 1.125 18.451 3.362 5.631 2.244 10.43 5.377 14.396 9.4 3.965 4.023 7.067 8.796 9.311 14.313 2.243 5.518 3.362 11.612 3.362 18.279 0 3.681-.432 7.328-1.29 10.946-.865 3.622-2.104 7.042-3.712 10.264-1.608 3.216-3.508 6.12-5.688 8.707-2.187 2.587-4.652 4.741-7.417 6.464-.922.693-1.525 1.526-1.806 2.504-.292.973-.089 1.926.604 2.841 4.367 5.752 8.962 11.67 13.793 17.765 4.83 6.088 9.138 11.668 12.933 16.721.687.922.859 1.926.515 3.02-.343 1.092-1.093 1.639-2.243 1.639h-32.071c-1.151 0-2.384-.317-3.706-.947-1.322-.635-2.327-1.411-3.019-2.332-3.661-4.824-7.29-9.712-10.9-14.656-3.604-4.939-7.176-9.941-10.722-15-.687-.922-1.659-1.697-2.918-2.326-1.258-.636-2.459-.953-3.604-.953h-3.775c-1.144 0-2.116.406-2.917 1.207-.801.807-1.201 1.786-1.201 2.93v27.94c0 1.15-.407 2.129-1.214 2.929-.808.808-1.793 1.208-2.949 1.208" transform="matrix(4.16667 0 0 4.16667 2023.89 292.422)"/><path d="m0-9.661h18.184c1.373 0 2.802-.254 4.29-.775 1.487-.515 2.86-1.316 4.118-2.415 1.259-1.087 2.288-2.441 3.089-4.049.8-1.608 1.201-3.508 1.201-5.689 0-1.15-.196-2.504-.597-4.054-.4-1.551-1.087-3.044-2.059-4.481-.973-1.436-2.289-2.644-3.948-3.623-1.658-.978-3.686-1.468-6.094-1.468h-18.184c-1.145 0-2.117.407-2.918 1.207-.801.808-1.201 1.786-1.201 2.93v18.279c0 1.151.4 2.13 1.201 2.931.801.807 1.773 1.207 2.918 1.207m-8.282 67.943h-25.818c-1.156 0-2.141-.4-2.948-1.208-.807-.8-1.214-1.779-1.214-2.929v-117.951c0-1.144.401-2.123 1.207-2.93.801-.8 1.78-1.207 2.93-1.207h53.631c6.66 0 12.812 1.125 18.45 3.362 5.632 2.244 10.43 5.377 14.397 9.4 3.965 4.023 7.067 8.796 9.31 14.313 2.244 5.518 3.362 11.612 3.362 18.279 0 3.681-.431 7.328-1.29 10.946-.864 3.622-2.103 7.042-3.712 10.264-1.608 3.216-3.508 6.12-5.688 8.707-2.187 2.587-4.652 4.741-7.417 6.464-.922.693-1.525 1.526-1.805 2.504-.293.973-.09 1.926.604 2.841 4.366 5.752 8.962 11.67 13.792 17.765 4.83 6.088 9.139 11.668 12.933 16.721.687.922.859 1.926.515 3.02-.343 1.092-1.093 1.639-2.243 1.639h-32.071c-1.151 0-2.384-.317-3.705-.947-1.323-.635-2.327-1.411-3.02-2.332-3.66-4.824-7.29-9.712-10.899-14.656-3.605-4.939-7.176-9.941-10.723-15-.687-.922-1.659-1.697-2.917-2.326-1.259-.636-2.46-.953-3.605-.953h-3.774c-1.145 0-2.117.406-2.918 1.207-.801.807-1.201 1.786-1.201 2.93v27.94c0 1.15-.406 2.129-1.214 2.929-.807.808-1.792 1.208-2.949 1.208" transform="matrix(4.16667 0 0 4.16667 2541.2 292.422)"/><path d="m0 318.737v-111.699c0-4.962-4.014-8.988-8.975-9.003l-56.622-.172c-4.118-.018-6.34-4.837-3.679-7.98l68.572-56.945c.446-.371.704-.921.704-1.5v-31.515c0-6.064 4.916-10.979 10.979-10.979h7.149c6.064 0 10.979 4.915 10.979 10.979v8.258l9.046-7.512 47.897-39.776c2.668-3.559 8.006-3.559 10.674 0l68.74 78.843c1.337 2.054 4.527 1.107 4.527-1.344l-.032-101.939c-.007-23.264-18.868-42.12-42.132-42.12h-245.763c-23.299 0-42.186 18.889-42.183 42.189l.034 236.639c.004 28.302 22.948 51.243 51.25 51.243h103.168c3.13 0 5.667-2.537 5.667-5.667" transform="matrix(1.58683 0 0 1.58683 254.081 18.3184)"/></g></svg>