<svg clip-rule="evenodd" fill-rule="evenodd" stroke-linejoin="round" stroke-miterlimit="1.41421" viewBox="0 0 3041 1663" xmlns="http://www.w3.org/2000/svg"><g fill="#fff" fill-rule="nonzero"><path d="m0-117.766v117.772c0 1.151-.4 2.129-1.201 2.93-.801.808-1.773 1.208-2.917 1.208h-25.906c-1.144 0-2.117-.4-2.918-1.208-.801-.801-1.201-1.779-1.201-2.93v-55.523c0-1.15-.515-1.786-1.557-1.9-1.036-.116-1.901.292-2.587 1.207l-29.04 46.727c-.578.922-1.5 1.38-2.764 1.38-1.271 0-2.25-.458-2.943-1.38l-29.033-46.727c-.579-.915-1.386-1.323-2.422-1.207-1.036.114-1.557.75-1.557 1.9v55.523c0 1.151-.4 2.129-1.201 2.93-.801.808-1.774 1.208-2.918 1.208h-25.905c-1.144 0-2.117-.4-2.918-1.208-.801-.801-1.201-1.779-1.201-2.93v-117.772c0-1.15.4-2.129 1.201-2.936.801-.801 1.774-1.208 2.918-1.208h24.024c1.138 0 2.346.35 3.598 1.036 1.258.693 2.179 1.494 2.745 2.416l33.19 48.628c.693.921 1.5 1.378 2.422 1.378s1.671-.457 2.243-1.378l33.19-48.628c.687-.922 1.659-1.723 2.917-2.416 1.259-.686 2.46-1.036 3.604-1.036h24.019c1.144 0 2.116.407 2.917 1.208.801.807 1.201 1.786 1.201 2.936" transform="matrix(4.16667 0 0 4.16667 1373.61 1359.49)"/><path d="m0 .001c0 4.372.801 8.51 2.408 12.412 1.614 3.915 3.826 7.36 6.643 10.348 2.815 2.993 6.12 5.377 9.915 7.156 3.794 1.786 7.817 2.676 12.069 2.676s8.276-.89 12.069-2.676c3.795-1.779 7.125-4.163 10.004-7.156 2.873-2.988 5.111-6.433 6.725-10.348 1.608-3.902 2.415-8.04 2.415-12.412 0-4.253-.807-8.364-2.415-12.331-1.614-3.966-3.852-7.41-6.725-10.347-2.879-2.929-6.209-5.282-10.004-7.067-3.793-1.78-7.817-2.67-12.069-2.67s-8.275.89-12.069 2.67c-3.795 1.785-7.1 4.138-9.915 7.067-2.817 2.937-5.029 6.381-6.643 10.347-1.607 3.967-2.408 8.078-2.408 12.331m-34.144 0c0-8.969 1.723-17.415 5.174-25.348 3.445-7.931 8.104-14.859 13.964-20.776 5.866-5.924 12.762-10.608 20.694-14.053 7.932-3.451 16.379-5.174 25.347-5.174s17.415 1.723 25.347 5.174c7.931 3.445 14.859 8.129 20.777 14.053 5.923 5.917 10.608 12.845 14.052 20.776 3.451 7.933 5.174 16.379 5.174 25.348 0 8.968-1.723 17.414-5.174 25.347-3.444 7.931-8.129 14.859-14.052 20.776-5.918 5.924-12.846 10.608-20.777 14.06-7.932 3.444-16.379 5.167-25.347 5.167s-17.415-1.723-25.347-5.167c-7.932-3.452-14.828-8.136-20.694-14.06-5.86-5.917-10.519-12.845-13.964-20.776-3.451-7.933-5.174-16.379-5.174-25.347" transform="matrix(4.16667 0 0 4.16667 1579.12 1113.78)"/><path d="m0-9.661h18.184c1.373 0 2.803-.254 4.291-.775 1.487-.515 2.859-1.316 4.118-2.415 1.259-1.087 2.288-2.441 3.089-4.049.8-1.608 1.201-3.508 1.201-5.689 0-1.15-.197-2.504-.598-4.054-.4-1.551-1.087-3.044-2.058-4.481-.973-1.436-2.289-2.644-3.948-3.623-1.659-.978-3.686-1.468-6.095-1.468h-18.184c-1.144 0-2.116.407-2.917 1.207-.801.808-1.201 1.786-1.201 2.93v18.279c0 1.151.4 2.13 1.201 2.931.801.807 1.773 1.207 2.917 1.207m-8.281 67.943h-25.818c-1.156 0-2.141-.4-2.949-1.208-.806-.8-1.214-1.779-1.214-2.929v-117.951c0-1.144.401-2.123 1.208-2.93.801-.8 1.78-1.207 2.93-1.207h53.63c6.661 0 12.813 1.125 18.451 3.362 5.631 2.244 10.43 5.377 14.396 9.4 3.965 4.023 7.067 8.796 9.311 14.313 2.243 5.518 3.362 11.612 3.362 18.279 0 3.681-.432 7.328-1.29 10.946-.865 3.622-2.104 7.042-3.712 10.264-1.608 3.216-3.508 6.12-5.688 8.707-2.187 2.587-4.652 4.741-7.417 6.464-.922.693-1.525 1.526-1.806 2.504-.292.973-.089 1.926.604 2.841 4.367 5.752 8.962 11.67 13.793 17.765 4.83 6.088 9.138 11.668 12.933 16.721.687.922.859 1.926.515 3.02-.343 1.092-1.093 1.639-2.243 1.639h-32.071c-1.151 0-2.384-.317-3.706-.947-1.322-.635-2.327-1.411-3.019-2.332-3.661-4.824-7.29-9.712-10.9-14.656-3.604-4.939-7.176-9.941-10.722-15-.687-.922-1.659-1.697-2.918-2.326-1.258-.636-2.459-.953-3.604-.953h-3.775c-1.144 0-2.116.406-2.917 1.207-.801.807-1.201 1.786-1.201 2.93v27.94c0 1.15-.407 2.129-1.214 2.929-.808.808-1.793 1.208-2.949 1.208" transform="matrix(4.16667 0 0 4.16667 2214.85 1133.91)"/><path d="m0-9.661h18.184c1.373 0 2.802-.254 4.29-.775 1.487-.515 2.86-1.316 4.118-2.415 1.259-1.087 2.288-2.441 3.089-4.049.8-1.608 1.201-3.508 1.201-5.689 0-1.15-.196-2.504-.597-4.054-.4-1.551-1.087-3.044-2.059-4.481-.973-1.436-2.289-2.644-3.948-3.623-1.658-.978-3.686-1.468-6.094-1.468h-18.184c-1.145 0-2.117.407-2.918 1.207-.801.808-1.201 1.786-1.201 2.93v18.279c0 1.151.4 2.13 1.201 2.931.801.807 1.773 1.207 2.918 1.207m-8.282 67.943h-25.818c-1.156 0-2.141-.4-2.948-1.208-.807-.8-1.214-1.779-1.214-2.929v-117.951c0-1.144.401-2.123 1.207-2.93.801-.8 1.78-1.207 2.93-1.207h53.631c6.66 0 12.812 1.125 18.45 3.362 5.632 2.244 10.43 5.377 14.397 9.4 3.965 4.023 7.067 8.796 9.31 14.313 2.244 5.518 3.362 11.612 3.362 18.279 0 3.681-.431 7.328-1.29 10.946-.864 3.622-2.103 7.042-3.712 10.264-1.608 3.216-3.508 6.12-5.688 8.707-2.187 2.587-4.652 4.741-7.417 6.464-.922.693-1.525 1.526-1.805 2.504-.293.973-.09 1.926.604 2.841 4.366 5.752 8.962 11.67 13.792 17.765 4.83 6.088 9.139 11.668 12.933 16.721.687.922.859 1.926.515 3.02-.343 1.092-1.093 1.639-2.243 1.639h-32.071c-1.151 0-2.384-.317-3.705-.947-1.323-.635-2.327-1.411-3.02-2.332-3.66-4.824-7.29-9.712-10.899-14.656-3.605-4.939-7.176-9.941-10.723-15-.687-.922-1.659-1.697-2.917-2.326-1.259-.636-2.46-.953-3.605-.953h-3.774c-1.145 0-2.117.406-2.918 1.207-.801.807-1.201 1.786-1.201 2.93v27.94c0 1.15-.406 2.129-1.214 2.929-.807.808-1.792 1.208-2.949 1.208" transform="matrix(4.16667 0 0 4.16667 2732.16 1133.91)"/><g><path d="m0 2.489v11.188h-2.806v-24.865h2.806v11.048h14.351v-11.048h2.806v24.865h-2.806v-11.188z" transform="matrix(4.16667 0 0 4.16667 13.24 1603.95)"/><path d="m0-7.957c-.486-1.255-1.167-2.345-2.043-3.268s-1.913-1.657-3.108-2.202c-1.196-.545-2.504-.817-3.925-.817s-2.73.266-3.925.799c-1.196.533-2.22 1.26-3.073 2.184s-1.522 2.008-2.007 3.251c-.486 1.243-.728 2.575-.728 3.996s.242 2.759.728 4.014c.485 1.256 1.166 2.345 2.042 3.269.876.923 1.913 1.657 3.109 2.202 1.195.545 2.504.816 3.925.816s2.729-.265 3.925-.799c1.196-.532 2.22-1.26 3.073-2.184.852-.923 1.521-2.007 2.007-3.25.485-1.243.728-2.576.728-3.997 0-1.42-.243-2.758-.728-4.014m2.717 8.863c-.616 1.551-1.48 2.919-2.593 4.103s-2.451 2.126-4.014 2.824-3.292 1.048-5.186 1.048c-1.895 0-3.618-.344-5.169-1.03-1.551-.687-2.883-1.617-3.996-2.789s-1.971-2.534-2.575-4.085-.906-3.191-.906-4.92c0-1.728.307-3.368.924-4.92.615-1.551 1.48-2.918 2.593-4.103 1.113-1.183 2.451-2.125 4.014-2.823s3.291-1.049 5.186-1.049 3.617.344 5.169 1.03c1.55.688 2.882 1.617 3.996 2.789 1.112 1.172 1.971 2.535 2.575 4.085.604 1.552.906 3.191.906 4.92s-.308 3.369-.924 4.92" transform="matrix(4.16667 0 0 4.16667 273.958 1625.71)"/><path d="m0 11.225h-.142l-9.059-13.285v20.105h-2.735v-24.865h2.842l9.058 13.569 9.058-13.569h2.842v24.865h-2.806v-20.141z" transform="matrix(4.16667 0 0 4.16667 437.581 1585.75)"/><path d="m0-19.75h-15.168v8.49h13.569v2.557h-13.569v8.704h15.345v2.557h-18.152v-24.866h17.975z" transform="matrix(4.16667 0 0 4.16667 665.218 1650.28)"/><path d="m0-9.289c.189.475.533.907 1.03 1.299.497.391 1.184.747 2.061 1.067.876.321 2 .622 3.374.906 2.771.618 4.813 1.471 6.128 2.563 1.314 1.091 1.971 2.597 1.971 4.518 0 1.068-.21 2.041-.631 2.918s-1.001 1.624-1.741 2.241c-.739.616-1.63 1.092-2.672 1.423s-2.179.498-3.41.498c-1.989 0-3.807-.322-5.453-.963-1.646-.642-3.214-1.636-4.706-2.981l1.74-2.06c1.302 1.185 2.617 2.067 3.943 2.647s2.853.87 4.582.87c1.682 0 3.025-.391 4.032-1.174 1.006-.782 1.51-1.814 1.51-3.095 0-.593-.095-1.12-.285-1.583-.189-.462-.522-.883-.997-1.263s-1.133-.724-1.976-1.032c-.843-.309-1.917-.605-3.223-.89-1.424-.307-2.664-.663-3.72-1.066-1.057-.404-1.93-.89-2.618-1.459-.689-.57-1.199-1.233-1.531-1.992s-.498-1.661-.498-2.704c0-.996.2-1.909.603-2.74.403-.83.971-1.548 1.706-2.152.734-.606 1.598-1.079 2.593-1.423.995-.345 2.084-.517 3.268-.517 1.823 0 3.416.252 4.777.753 1.362.502 2.683 1.258 3.961 2.267l-1.633 2.167c-1.162-.947-2.328-1.634-3.499-2.061-1.173-.426-2.398-.638-3.677-.638-.806 0-1.534.106-2.185.32-.652.213-1.208.497-1.67.854-.461.356-.817.782-1.065 1.28-.249.498-.373 1.032-.373 1.6 0 .594.095 1.128.284 1.602" transform="matrix(4.16667 0 0 4.16667 773.708 1628.49)"/><path d="m0-18.435-5.684 12.682h11.332zm12.682 21.739h-3.02l-2.912-6.571h-13.535l-2.948 6.571h-2.877l11.331-25.043h2.629z" transform="matrix(4.16667 0 0 4.16667 1094.29 1647.17)"/><path d="m0-24.865h2.735v24.865h-2.237l-16.057-20.389v20.389h-2.735v-24.865h2.629l15.665 19.928z" transform="matrix(4.16667 0 0 4.16667 1317.79 1660.94)"/><path d="m0-7.672c-.485-1.208-1.172-2.256-2.06-3.144s-1.972-1.586-3.251-2.095c-1.278-.51-2.699-.765-4.262-.765h-5.826v19.68h5.826c1.563 0 2.984-.248 4.262-.746 1.279-.497 2.363-1.19 3.251-2.078.888-.889 1.575-1.924 2.06-3.108s.729-2.475.729-3.873c0-1.373-.244-2.664-.729-3.871m2.681 8.721c-.639 1.527-1.544 2.847-2.716 3.96-1.173 1.114-2.57 1.989-4.192 2.629-1.622.639-3.405.959-5.346.959h-8.632v-24.866h8.632c1.941 0 3.724.314 5.346.942s3.019 1.498 4.192 2.61c1.172 1.113 2.077 2.428 2.716 3.943.641 1.516.96 3.15.96 4.903 0 1.752-.319 3.392-.96 4.92" transform="matrix(4.16667 0 0 4.16667 1508.35 1625.12)"/><path d="m0-16.943c-1.223-.912-2.844-1.368-4.861-1.368h-6.305v10.941h6.162c1.022 0 1.953-.13 2.796-.39.843-.261 1.566-.634 2.172-1.12.606-.485 1.068-1.065 1.39-1.74.32-.676.481-1.427.481-2.256 0-1.799-.611-3.156-1.835-4.067m3.86 7.513c-.521 1.018-1.225 1.871-2.114 2.557-.888.688-1.924 1.202-3.108 1.545-1.185.344-2.44.516-3.766.516h-6.038v8.773h-2.807v-24.865h9.307c1.397 0 2.67.184 3.819.55 1.149.368 2.131.889 2.949 1.563.817.676 1.443 1.505 1.882 2.487.438.983.658 2.09.658 3.321 0 1.35-.261 2.535-.782 3.553" transform="matrix(4.16667 0 0 4.16667 1798.86 1644.43)"/><path d="m0-17.076c-1.116-.867-2.683-1.302-4.701-1.302h-7.692v10.124h7.657c.925 0 1.78-.118 2.563-.356.784-.237 1.461-.576 2.03-1.016.57-.44 1.015-.98 1.336-1.622.321-.641.481-1.366.481-2.175 0-1.568-.559-2.786-1.674-3.653m1.923 20.971-7.211-9.662h-7.105v9.662h-2.806v-24.866h10.692c1.373 0 2.611.178 3.712.534 1.101.355 2.042.858 2.823 1.51.783.652 1.386 1.434 1.813 2.345.427.913.638 1.926.638 3.039 0 1.042-.165 1.973-.496 2.79-.333.818-.799 1.529-1.403 2.133-.603.605-1.321 1.107-2.149 1.511-.83.402-1.729.686-2.701.852l7.638 10.152z" transform="matrix(4.16667 0 0 4.16667 1976.85 1644.71)"/><path d="m0-7.957c-.485-1.255-1.167-2.345-2.043-3.268-.877-.923-1.912-1.657-3.108-2.202s-2.504-.817-3.925-.817-2.73.266-3.926.799c-1.195.533-2.22 1.26-3.072 2.184-.853.924-1.522 2.008-2.007 3.251-.486 1.243-.729 2.575-.729 3.996s.243 2.759.729 4.014c.485 1.256 1.166 2.345 2.042 3.269.877.923 1.913 1.657 3.108 2.202 1.197.545 2.504.816 3.926.816 1.421 0 2.729-.265 3.925-.799 1.195-.532 2.22-1.26 3.073-2.184.853-.923 1.522-2.007 2.007-3.25.484-1.243.729-2.576.729-3.997 0-1.42-.245-2.758-.729-4.014m2.717 8.863c-.616 1.551-1.48 2.919-2.593 4.103s-2.451 2.126-4.014 2.824-3.293 1.048-5.186 1.048c-1.896 0-3.618-.344-5.169-1.03-1.551-.687-2.883-1.617-3.996-2.789s-1.972-2.534-2.575-4.085c-.604-1.551-.907-3.191-.907-4.92 0-1.728.308-3.368.924-4.92.616-1.551 1.48-2.918 2.593-4.103 1.113-1.183 2.451-2.125 4.015-2.823 1.562-.698 3.291-1.049 5.186-1.049s3.617.344 5.168 1.03c1.551.688 2.884 1.617 3.997 2.789 1.112 1.172 1.971 2.535 2.575 4.085.604 1.552.906 3.191.906 4.92s-.308 3.369-.924 4.92" transform="matrix(4.16667 0 0 4.16667 2180.46 1625.71)"/><path d="m0 15.523c-.386 1.078-.919 1.978-1.599 2.699-.679.724-1.493 1.262-2.44 1.617s-1.978.533-3.09.533c-1.871 0-3.423-.414-4.653-1.244-1.233-.828-2.239-1.882-3.02-3.162l2.025-1.74c.757 1.161 1.568 2.043 2.432 2.647.866.603 1.949.906 3.251.906 1.397 0 2.558-.503 3.482-1.51.923-1.007 1.384-2.492 1.384-4.458v-16.66h2.807v16.625c0 1.42-.193 2.67-.579 3.747" transform="matrix(4.16667 0 0 4.16667 2341.52 1577.54)"/><path d="m0-19.75h-15.169v8.49h13.57v2.557h-13.57v8.704h15.347v2.557h-18.153v-24.866h17.975z" transform="matrix(4.16667 0 0 4.16667 2520.65 1650.28)"/><path d="m0 20.569c-.699.532-1.451.989-2.256 1.367-.805.379-1.67.675-2.593.889-.923.213-1.954.319-3.091.319-1.799 0-3.457-.332-4.972-.995-1.517-.662-2.831-1.568-3.943-2.717-1.114-1.149-1.985-2.505-2.612-4.067-.627-1.564-.941-3.244-.941-5.045 0-1.775.314-3.445.941-5.008s1.498-2.93 2.612-4.102c1.112-1.173 2.438-2.097 3.978-2.772 1.539-.675 3.22-1.013 5.044-1.013 1.137 0 2.16.095 3.073.285.91.19 1.758.456 2.539.799.783.344 1.503.758 2.167 1.244.662.485 1.303 1.024 1.918 1.616l-1.918 2.06c-1.065-.995-2.209-1.811-3.427-2.451-1.22-.639-2.682-.959-4.387-.959-1.374 0-2.648.261-3.82.781-1.171.522-2.19 1.244-3.054 2.167-.865.923-1.539 2.007-2.025 3.25-.486 1.244-.728 2.588-.728 4.033 0 1.444.242 2.794.728 4.048.486 1.257 1.16 2.346 2.025 3.269.864.924 1.883 1.652 3.054 2.185 1.172.533 2.446.798 3.82.798 1.705 0 3.173-.312 4.404-.941 1.232-.627 2.439-1.51 3.624-2.645l1.847 1.811c-.64.663-1.31 1.261-2.007 1.794" transform="matrix(4.16667 0 0 4.16667 2699.37 1566.28)"/><path d="m0 24.865h-2.806v-22.272h-8.347v-2.593h19.501v2.593h-8.348z" transform="matrix(4.16667 0 0 4.16667 2841.24 1557.33)"/><path d="m0-9.289c.189.475.532.907 1.03 1.299.497.391 1.185.747 2.061 1.067.875.321 2.001.622 3.375.906 2.77.618 4.812 1.471 6.127 2.563 1.314 1.091 1.971 2.597 1.971 4.518 0 1.068-.211 2.041-.631 2.918-.421.877-1.002 1.624-1.741 2.241-.739.616-1.63 1.092-2.671 1.423-1.043.331-2.18.498-3.412.498-1.988 0-3.806-.322-5.452-.963-1.646-.642-3.215-1.636-4.707-2.981l1.741-2.06c1.302 1.185 2.617 2.067 3.943 2.647s2.853.87 4.583.87c1.68 0 3.024-.391 4.031-1.174 1.007-.782 1.51-1.814 1.51-3.095 0-.593-.095-1.12-.285-1.583-.19-.462-.522-.883-.997-1.263s-1.134-.724-1.976-1.032c-.843-.309-1.917-.605-3.223-.89-1.423-.307-2.665-.663-3.72-1.066-1.057-.404-1.93-.89-2.619-1.459-.687-.57-1.198-1.233-1.53-1.992-.333-.759-.498-1.661-.498-2.704 0-.996.201-1.909.604-2.74.402-.83.97-1.548 1.705-2.152.733-.606 1.598-1.079 2.593-1.423.995-.345 2.084-.517 3.267-.517 1.824 0 3.417.252 4.778.753 1.362.502 2.682 1.258 3.961 2.267l-1.633 2.167c-1.161-.947-2.328-1.634-3.5-2.061-1.172-.426-2.397-.638-3.676-.638-.806 0-1.533.106-2.185.32-.651.213-1.208.497-1.67.854-.462.356-.817.782-1.065 1.28-.249.498-.373 1.032-.373 1.6 0 .594.095 1.128.284 1.602" transform="matrix(4.16667 0 0 4.16667 2980.07 1628.49)"/></g><path d="m0 318.737v-111.699c0-4.962-4.014-8.988-8.975-9.003l-56.622-.172c-4.118-.018-6.34-4.837-3.679-7.98l68.572-56.945c.446-.371.704-.921.704-1.5v-31.515c0-6.064 4.916-10.979 10.979-10.979h7.149c6.064 0 10.979 4.915 10.979 10.979v8.258l9.046-7.512 47.897-39.776c2.668-3.559 8.006-3.559 10.674 0l68.74 78.843c1.337 2.054 4.527 1.107 4.527-1.344l-.032-101.939c-.007-23.264-18.868-42.12-42.132-42.12h-245.763c-23.299 0-42.186 18.889-42.183 42.189l.034 236.639c.004 28.302 22.948 51.243 51.25 51.243h103.168c3.13 0 5.667-2.537 5.667-5.667" transform="matrix(4.16667 0 0 4.16667 667.163 23.6125)"/></g></svg>